<?xml version="1.0" encoding="utf-8"?>
<!-- Generator: Adobe Illustrator 28.2.0, SVG Export Plug-In . SVG Version: 6.00 Build 0)  -->
<svg version="1.1" id="Layer_1" xmlns:serif="http://www.serif.com/"
	 xmlns="http://www.w3.org/2000/svg" xmlns:xlink="http://www.w3.org/1999/xlink" x="0px" y="0px" viewBox="0 0 500 500"
	 style="enable-background:new 0 0 500 500;" xml:space="preserve">
<style type="text/css">
	.st0{fill:#FFFFFF;}
</style>
<g id="Artboard1" transform="matrix(0.267857,0,0,0.441176,0,0)">
	<g transform="matrix(0.955463,0,0,0.580103,-356.942,25.8683)">
		<g id="Disney-Plus" serif:id="Disney Plus">
			<g>
				<path class="st0" d="M1708.4,1072.2c-24,5.4-87.2,8.4-87.2,8.4l-8.1,25c0,0,31.5-2.6,54.5-0.1c0,0,7.5-0.8,8.3,8.5
					c0.3,8.7-0.7,18-0.7,18s-0.5,5.7-8.5,7c-8.7,1.5-68,3.4-68,3.4l-9.8,32.5c0,0-3.5,7.5,4.5,5.3c7.5-2,69.7-13.4,77.9-11.7
					c8.7,2.2,18.3,13.7,15.4,24.4c-3.4,13-65.5,52.4-103.3,49.5c0,0-19.8,1.3-36.6-25.6c-15.6-25.6,6.3-74,6.3-74
					s-9.8-22.7-2.6-30.2c0,0,4.3-3.8,16.7-4.8l15.3-31.4c0,0-17.3,1.1-27.6-11.6c-9.6-12.2-10.3-17.7-2.9-21
					c7.8-3.8,80.1-16.7,129.7-14.9c0,0,17.3-1.6,32.1,28.4C1713.5,1057.2,1720.8,1069.4,1708.4,1072.2z M1521.2,1192.5
					c-6.4,15-23.3,30.9-44.1,20.8c-20.6-10.1-53.2-77.4-53.2-77.4s-12.4-25-14.7-24.6c0,0-2.6-4.8-4.4,22.5
					c-1.8,27.3,0,80.5-10.8,88.8c-10.4,8.3-22.9,4.9-29.3-4.9c-5.8-9.7-8.2-32.7-4.9-73c4-40.3,13.5-83.3,25.5-96.7
					c12-13.3,21.7-3.6,25.3-0.1c0,0,15.9,14.6,42.3,57.3l4.6,7.8c0,0,23.9,40.4,26.4,40.3c0,0,2,1.8,3.7,0.5
					c2.5-0.7,1.5-13.7,1.5-13.7s-4.8-43.9-26.4-118.3c0,0-3.3-9.3-0.9-18c2.2-8.8,11-4.6,11-4.6s33.9,17.1,50.1,72.5
					C1538.8,1127.7,1527.6,1177.5,1521.2,1192.5z M1354.7,1049.7c-2.9,5.7-4.5,13.8-18.9,15.9c0,0-137.2,8.8-143.7,18.5
					c0,0-4.9,5.6,2.6,7.3c7.5,1.5,38.5,5.8,53.5,6.7c16,0.2,70,0.9,89.2,25.2c0,0,11.5,11.5,10.9,37.5c-0.6,26.7-5.3,36-15.7,45.6
					c-10.9,9-104,50.3-163.8-13.9c0,0-27.6-30.9,9.7-54.1c0,0,26.9-16.1,95,3.2c0,0,20.6,7.6,19.6,15.1c-1.2,8-17.1,16.4-40.1,15.9
					c-22.3-0.7-38.6-11.5-35.5-9.8c3,1.2-24-13.1-32.3-3.4c-8.4,8.8-6.4,14.3,1.8,19.8c20.8,11.9,101.3,8,125.4-18.6
					c0,0,9.5-10.8-4.9-19.7c-14.5-8.4-56-13.5-72.1-14.4c-15.5-0.9-73.2-0.1-81.4-15.5c0,0-8.3-10.4,1-39.7
					c9.8-30.6,77-42.2,106-44.8c0,0,79.8-2.5,94.5,13.8C1355.2,1040.4,1357.2,1044.3,1354.7,1049.7z M1127.4,1228.8
					c-9.7,7.1-30.2,3.9-36-4.1c-5.8-7.2-7.7-35.7-6.4-80.4c1.3-45.2,2.5-101.2,12.2-110c10.4-9,16.7-1.1,20.6,5.1
					c4.3,6,9.5,12.7,10.6,26.9c0.9,14.2,4,88.5,4,88.5S1136.6,1221.8,1127.4,1228.8z M1149.1,989.2c-28.2,9.2-47.5,6-63.8-1.1
					c-7.2,12.5-11.4,16.3-16.9,17.1c-8,0.8-15.1-12.1-16.4-16.2c-1.3-3.2-5.1-8.5-0.4-21.2c-15.9-14.4-17-33.7-14.3-46.7
					c4.1-15,31.3-71.9,113.4-78.3c0,0,40.2-2.9,46.9,18.7l1.2,0c0,0,39,0.3,38,35C1236.1,931.3,1193.1,974.5,1149.1,989.2z
					 M1072.7,911.7c-8.4,13.3-8.7,21.3-4.9,26.8c9.6-14.5,27-37.2,52.5-54.5C1100.6,885.7,1084.1,894.1,1072.7,911.7z M1186.3,889.8
					c-25.8,3.7-66,38.3-85.1,66.5c29.1,5.4,80.7,3.6,103.7-42.8C1204.7,913.5,1215.8,884.7,1186.3,889.8z M1886.6,1160.8
					c-15.6,26.9-59.3,83.1-117.2,69.7c-19.3,46.4-35.5,93.2-44.9,163.5c0,0-2,13.7-13.4,8.8c-11.2-4-29.8-22.8-33.3-48.6
					c-3.9-34,11.5-91.5,42.6-157.2c-8.9-14.7-15-35.7-9.6-65.5c0,0,8-55.3,63.7-105.1c0,0,6.7-5.8,10.5-4c4.3,1.8,2.3,19.8-1.3,28.5
					c-3.5,8.7-28.5,51.6-28.5,51.6s-15.6,28.9-11.4,51.8c29.3-44.7,96-135,137-106.3c13.8,9.9,20.1,31.4,20,54.6
					C1900.6,1123,1895.7,1144.7,1886.6,1160.8z M1874.9,1089.8c0,0-2.3-17.8-19.7,1.8c-15.1,16.4-42.2,47.5-64.2,89.6
					c22.8-2.4,44.9-14.8,51.6-21.1C1853.5,1150.4,1878.8,1124.4,1874.9,1089.8z M1065.6,1109.5c-3.3,40.3-19.1,108.1-129,141.2
					c-72.6,21.6-141,10.8-178.3,1.2c-0.9,14.8-2.6,21.2-4.9,23.6c-3.2,3.2-26.9,16.7-39.8-2.6c-5.8-9.2-8.7-25.9-10.4-40.7
					c-83.9-39-122.3-94.8-123.8-97.3c-1.8-1.8-20.9-21.9-1.7-46.3c18.1-22.1,77-44.1,130-52.9c2-45.3,7.5-79.5,13.8-95.1
					c7.7-18.1,17.3-1.8,25.6,10.6c7,9.2,11,48.7,11.2,80.2c34.7-1.5,55.2,1,93.8,8.2c50.3,9.3,83.9,35.1,80.8,64.3
					c-2.3,28.7-28.6,40.4-38.6,41.2c-10.5,0.8-26.8-6.8-26.8-6.8c-11.1-5.4-0.8-10,12.7-15.8c14.7-7.1,11.4-14.5,11.4-14.5
					c-5.4-16-70.7-27.4-135.7-27.7c-0.5,35.8,1.2,95.3,1.9,130c45.5,8.8,79.5,7.3,79.5,7.3s166-4.1,171.4-110.1
					c5.5-106.1-164.8-208.6-290.8-241.4c-125.9-33.4-197.3-10.7-203.5-7.6c-6.7,3.3-0.5,4.3-0.5,4.3s6.8,1,18.6,5.1
					c12.5,4,2.8,10.5,2.8,10.5c-21.5,6.8-45.7,2.3-50.3-7.5c-4.6-9.8,3.2-18.7,12.3-31.3c9-13.3,18.9-12.8,18.9-12.8
					c156-53.4,345.5,44.9,345.5,44.9C1039.2,962.8,1069.1,1068.6,1065.6,1109.5z M595.3,1102.4c-17.7,8.6-5.6,21.1-5.6,21.1
					c33,35.8,73.8,58.3,112.6,72.2c4.7-61.5,4.1-83.2,4.7-114.2C646.4,1085.6,611.4,1095.1,595.3,1102.4z"/>
				<path class="st0" d="M2216.9,1095.5l-0.1,22c0,4.8-3.9,8.7-8.7,8.6l-104.8-0.4c0,5.5,0.1,10.3,0.1,14.8
					c-0.1,32.5-1.5,59-4.8,88.8c-0.5,4.5-4.2,7.8-8.5,7.8l-22.7-0.1c-2.3,0-4.5-1-6-2.7s-2.3-4-2-6.3c3.3-29.7,4.9-55.8,5-87.6
					c0-4.7,0-9.5-0.1-14.8l-103.7-0.4c-4.8,0-8.7-3.9-8.6-8.7l0.1-22c0-4.8,3.9-8.7,8.7-8.6l102.2,0.4c-2-35.8-6.2-70.4-13.1-105.4
					c-0.3-2.2,0.2-4.3,1.5-6c1.3-1.7,3.3-2.7,5.5-2.6l24.5,0.1c3.8,0,7,2.7,7.8,6.5c6.7,36.2,10.9,71.4,12.9,107.5l106.2,0.4
					C2212.9,1086.8,2216.9,1090.8,2216.9,1095.5z"/>
				<g>
					<path class="st0" d="M816.7,800l-0.2,0 M815.4,800.2c-0.5,0-1-0.2-1.5-0.2C814.4,800.1,814.9,800.2,815.4,800.2l0.5,0
						L815.4,800.2z M815.4,800.2c-0.5,0-1-0.2-1.5-0.2C814.4,800.1,814.9,800.2,815.4,800.2l0.5,0L815.4,800.2z"/>
					<path class="st0" d="M2074.8,920.5c-53.7-133.4-144.8-247.2-263.5-329.3c-121.5-83.9-264.2-128.6-412.5-129.1
						c-245.3-0.9-473.4,120.1-610,323.8c-1.5,2.2-1.9,5-1,7.5c0.8,2.7,2.8,4.5,5.3,5.4l19,6.6c1.2,0.3,2.3,0.5,3.3,0.5
						c3.5,0,6.8-1.8,8.8-4.6c62.7-91.4,147.3-167.3,244.8-219.6c100.7-54,214.6-82.4,329.5-82c138.8,0.5,272.5,42,386.9,119.7
						c111.6,75.9,198,181.7,250.1,305.7c1.5,3.7,5.1,6.2,9.1,6.2l22.7,0.1c2.7,0,5.2-1.3,6.5-3.5
						C2075.5,925.6,2075.8,923,2074.8,920.5z M815.4,800.2c-0.5,0-1-0.2-1.5-0.3C814.4,800,814.9,800.2,815.4,800.2l0.3,0
						L815.4,800.2z M2040,928.2c0.5,0.3,1,0.7,1.5,0.8C2041,928.7,2040.5,928.5,2040,928.2z"/>
				</g>
			</g>
		</g>
	</g>
</g>
</svg>
