<?xml version="1.0" encoding="utf-8"?>
<!-- Generator: Adobe Illustrator 28.2.0, SVG Export Plug-In . SVG Version: 6.00 Build 0)  -->
<svg version="1.1" id="Layer_1" xmlns="http://www.w3.org/2000/svg" xmlns:xlink="http://www.w3.org/1999/xlink" x="0px" y="0px"
	 viewBox="0 0 219.4 21.4" style="enable-background:new 0 0 219.4 21.4;" xml:space="preserve">
<style type="text/css">
	.st0{fill:#FFFFFF;}
</style>
<g>
	<path class="st0" d="M10.4,3.5H7.1v6.9H4.3V3.5H1V1.2h9.5V3.5z"/>
	<path class="st0" d="M18.8,10.4h-2.4V6.9c0,0,0-0.1,0-0.1c0,0,0-0.1,0-0.2c0-0.3-0.1-0.6-0.2-0.9c-0.1-0.3-0.4-0.4-0.8-0.4
		c-0.3,0-0.6,0.1-0.8,0.3c-0.2,0.2-0.4,0.5-0.7,0.8v3.9h-2.4V1.2H14v3.4c0.4-0.4,0.8-0.7,1.2-0.9s0.8-0.2,1.2-0.2
		c1.6,0,2.4,0.9,2.4,2.7V10.4z"/>
	<path class="st0" d="M27.1,7.6h-4.7c0.1,0.4,0.3,0.7,0.7,1C23.4,8.9,23.9,9,24.3,9C25.1,9,26,8.8,27,8.3v1.5
		c-0.3,0.2-0.8,0.3-1.3,0.5c-0.5,0.1-1.1,0.2-1.9,0.2c-0.8,0-1.5-0.2-2.1-0.5s-1-0.7-1.3-1.3C20.1,8.3,20,7.7,20,7
		c0-0.7,0.1-1.3,0.4-1.8c0.3-0.5,0.7-0.9,1.3-1.2s1.3-0.4,2.1-0.4c0.5,0,1.1,0.1,1.6,0.4s0.9,0.6,1.3,1.2c0.3,0.5,0.5,1.2,0.5,2.1
		V7.6z M24.9,6.4c0-0.4-0.1-0.8-0.3-1C24.4,5.1,24.1,5,23.7,5c-0.4,0-0.7,0.1-1,0.4c-0.2,0.3-0.4,0.6-0.4,1H24.9z"/>
	<path class="st0" d="M52.4,20.2h-5.7v-11l-5.2,6.4h-0.5l-5.2-6.4v11h-5.6V1.2h5.2l5.8,7.1l5.9-7.1h5.2V20.2z"/>
	<path class="st0" d="M71.7,13.2c0,1.4-0.3,2.6-0.9,3.7s-1.5,1.9-2.7,2.6c-1.2,0.6-2.7,0.9-4.4,0.9c-1.7,0-3.2-0.3-4.4-0.9
		c-1.2-0.6-2.1-1.5-2.7-2.6c-0.6-1.1-0.9-2.3-0.9-3.7c0-1,0.2-2,0.5-2.9c0.3-0.9,0.8-1.6,1.5-2.3c0.7-0.7,1.5-1.2,2.5-1.5
		c1-0.4,2.1-0.5,3.4-0.5c1.3,0,2.5,0.2,3.5,0.5c1,0.4,1.8,0.9,2.5,1.5c0.7,0.6,1.2,1.4,1.5,2.3C71.6,11.2,71.7,12.2,71.7,13.2z
		 M66.6,13.2c0-1.1-0.2-2-0.7-2.6s-1.2-0.9-2.1-0.9c-0.9,0-1.6,0.3-2.1,0.9S61,12.1,61,13.2c0,1.1,0.2,2,0.7,2.6
		c0.5,0.6,1.2,1,2.1,1c0.9,0,1.6-0.3,2.1-1C66.3,15.2,66.6,14.3,66.6,13.2z"/>
	<path class="st0" d="M88.6,6.3l-6.3,13.9h-3.6L72.4,6.3h5.3l2.9,7.3l3.2-7.3H88.6z"/>
	<path class="st0" d="M95.4,20.2h-4.9V6.3h4.9V20.2z M95,3c0,0.6-0.2,1.1-0.6,1.5c-0.4,0.4-0.9,0.6-1.5,0.6c-0.4,0-0.7-0.1-1-0.3
		c-0.3-0.2-0.6-0.4-0.7-0.7c-0.2-0.3-0.3-0.7-0.3-1c0-0.6,0.2-1.1,0.6-1.5C91.9,1.2,92.4,1,92.9,1c0.6,0,1.1,0.2,1.5,0.6
		S95,2.5,95,3z"/>
	<path class="st0" d="M113.1,14.4h-9.8c0.2,0.8,0.7,1.5,1.4,2.1c0.7,0.5,1.6,0.8,2.5,0.8c1.7,0,3.5-0.5,5.5-1.4v3
		c-0.7,0.4-1.6,0.7-2.6,1s-2.3,0.5-3.9,0.5c-1.7,0-3.2-0.3-4.4-1s-2.1-1.5-2.7-2.6c-0.6-1.1-0.9-2.3-0.9-3.7c0-1.4,0.3-2.6,0.9-3.7
		c0.6-1.1,1.5-1.9,2.7-2.5s2.7-0.9,4.4-0.9c1.1,0,2.2,0.2,3.3,0.7s1.9,1.3,2.6,2.4c0.7,1.1,1,2.5,1,4.3V14.4z M108.5,12
		c0-0.9-0.2-1.6-0.7-2.1c-0.4-0.5-1.1-0.8-1.9-0.8c-0.8,0-1.5,0.3-2,0.8s-0.8,1.3-0.8,2.1H108.5z"/>
	<path class="st0" d="M133.7,20.2h-19.2l9.8-14.4h-9V1.2h18.4l-9.8,14.4h9.8V20.2z"/>
	<path class="st0" d="M151.3,13.2c0,1.4-0.3,2.6-0.9,3.7s-1.5,1.9-2.7,2.6s-2.7,0.9-4.4,0.9s-3.2-0.3-4.4-0.9s-2.1-1.5-2.7-2.6
		s-0.9-2.3-0.9-3.7c0-1,0.2-2,0.5-2.9s0.8-1.6,1.5-2.3s1.5-1.2,2.5-1.5S142,6,143.3,6c1.3,0,2.5,0.2,3.5,0.5c1,0.4,1.8,0.9,2.5,1.5
		s1.2,1.4,1.5,2.3S151.3,12.2,151.3,13.2z M146.1,13.2c0-1.1-0.2-2-0.7-2.6s-1.2-0.9-2.1-0.9c-0.9,0-1.6,0.3-2.1,0.9
		s-0.7,1.5-0.7,2.6c0,1.1,0.2,2,0.7,2.6c0.5,0.6,1.2,1,2.1,1c0.9,0,1.6-0.3,2.1-1C145.9,15.2,146.1,14.3,146.1,13.2z"/>
	<path class="st0" d="M168.7,20.2h-4.9v-7.5c0-0.8-0.1-1.4-0.4-2s-0.8-0.9-1.6-0.9c-0.4,0-0.8,0.1-1.1,0.2s-0.6,0.3-0.8,0.6
		s-0.4,0.5-0.6,0.7s-0.3,0.5-0.5,0.7v8.2h-4.9V6.3h4.9v2c0.8-0.8,1.6-1.4,2.3-1.7c0.8-0.3,1.6-0.5,2.6-0.5c3.3,0,5,2,5,6V20.2z"/>
	<path class="st0" d="M185.9,14.4h-9.8c0.2,0.8,0.7,1.5,1.4,2.1c0.7,0.5,1.6,0.8,2.5,0.8c1.7,0,3.5-0.5,5.5-1.4v3
		c-0.7,0.4-1.6,0.7-2.6,1s-2.3,0.5-3.9,0.5c-1.7,0-3.2-0.3-4.4-1s-2.1-1.5-2.7-2.6s-0.9-2.3-0.9-3.7c0-1.4,0.3-2.6,0.9-3.7
		s1.5-1.9,2.7-2.5S177.3,6,179,6c1.1,0,2.2,0.2,3.3,0.7s1.9,1.3,2.6,2.4s1,2.5,1,4.3V14.4z M181.3,12c0-0.9-0.2-1.6-0.7-2.1
		S179.6,9,178.7,9c-0.8,0-1.5,0.3-2,0.8S176,11.1,176,12H181.3z"/>
	<path class="st0" d="M191.3,19.1c0,0.4-0.1,0.7-0.4,0.9s-0.6,0.4-0.9,0.4c-0.4,0-0.7-0.1-1-0.4c-0.3-0.3-0.4-0.6-0.4-0.9
		c0-0.4,0.1-0.7,0.4-0.9c0.3-0.3,0.6-0.4,1-0.4c0.2,0,0.5,0.1,0.7,0.2c0.2,0.1,0.4,0.3,0.5,0.5C191.2,18.6,191.3,18.8,191.3,19.1z"
		/>
	<path class="st0" d="M197.9,20c-0.2,0.1-0.4,0.1-0.6,0.2c-0.2,0.1-0.4,0.1-0.7,0.1c-0.3,0-0.5,0.1-0.9,0.1c-0.7,0-1.3-0.1-1.8-0.4
		c-0.5-0.2-0.8-0.5-1.1-0.9c-0.3-0.4-0.4-0.7-0.5-1.1c-0.1-0.4-0.1-0.7-0.1-1s0.1-0.6,0.2-1c0.1-0.4,0.3-0.7,0.5-1.1
		c0.3-0.3,0.6-0.6,1.1-0.9c0.5-0.2,1.1-0.3,1.8-0.3c0.5,0,0.9,0,1.1,0.1c0.3,0.1,0.6,0.2,0.9,0.3V16c-0.7-0.2-1.3-0.3-1.7-0.3
		c-0.4,0-0.8,0.1-1.1,0.4c-0.3,0.2-0.5,0.6-0.5,1.1c0,0.3,0.1,0.6,0.2,0.9s0.3,0.4,0.6,0.5c0.2,0.1,0.5,0.2,0.7,0.2
		c0.2,0,0.5,0,0.8-0.1c0.3-0.1,0.6-0.2,1-0.3V20z"/>
	<path class="st0" d="M205.9,17.1c0,0.6-0.1,1.2-0.4,1.7c-0.3,0.5-0.7,0.9-1.2,1.2c-0.5,0.3-1.2,0.4-2,0.4c-0.8,0-1.5-0.1-2-0.4
		c-0.5-0.3-1-0.7-1.2-1.2c-0.3-0.5-0.4-1.1-0.4-1.7c0-0.5,0.1-0.9,0.2-1.3c0.2-0.4,0.4-0.7,0.7-1c0.3-0.3,0.7-0.5,1.1-0.7
		c0.5-0.2,1-0.2,1.6-0.2c0.6,0,1.1,0.1,1.6,0.2c0.5,0.2,0.8,0.4,1.1,0.7s0.5,0.6,0.7,1C205.9,16.2,205.9,16.7,205.9,17.1z
		 M203.6,17.1c0-0.5-0.1-0.9-0.3-1.2c-0.2-0.3-0.5-0.4-0.9-0.4c-0.4,0-0.7,0.1-0.9,0.4c-0.2,0.3-0.3,0.7-0.3,1.2
		c0,0.5,0.1,0.9,0.3,1.2c0.2,0.3,0.5,0.4,0.9,0.4c0.4,0,0.7-0.1,0.9-0.4C203.5,18,203.6,17.6,203.6,17.1z"/>
	<path class="st0" d="M218.4,20.3h-2.2v-3.4c0-0.4-0.1-0.8-0.2-1c-0.1-0.2-0.4-0.3-0.7-0.3c-0.3,0-0.6,0.1-0.8,0.3
		c-0.2,0.2-0.4,0.4-0.6,0.7v3.7h-2.2v-3.4c0-0.4-0.1-0.8-0.2-1c-0.1-0.2-0.4-0.3-0.7-0.3c-0.2,0-0.3,0-0.5,0.1
		c-0.1,0.1-0.3,0.1-0.3,0.2c-0.1,0.1-0.2,0.2-0.3,0.4c-0.1,0.2-0.2,0.3-0.2,0.3v3.7h-2.2V14h2.2v0.9c0.3-0.4,0.7-0.6,1-0.8
		c0.3-0.2,0.8-0.2,1.2-0.2c0.2,0,0.4,0,0.6,0.1c0.2,0,0.4,0.1,0.6,0.2c0.2,0.1,0.4,0.2,0.5,0.4c0.2,0.2,0.3,0.4,0.4,0.6
		c0.4-0.4,0.7-0.7,1.1-0.9c0.4-0.2,0.8-0.3,1.3-0.3s0.9,0.1,1.3,0.3c0.3,0.2,0.6,0.5,0.8,0.9c0.2,0.4,0.2,0.9,0.2,1.4V20.3z"/>
</g>
</svg>
